<?xml version="1.0" encoding="UTF-8"?>
<svg width="1350px" height="584px" viewBox="0 0 1350 584" version="1.1" xmlns="http://www.w3.org/2000/svg" xmlns:xlink="http://www.w3.org/1999/xlink">
    <!-- Generator: Sketch 53.2 (72643) - https://sketchapp.com -->
    <title>Group 98</title>
    <desc>Created with Sketch.</desc>
    <defs>
        <polygon id="path-1" points="0 584 1350 584 1350 0 0 0"></polygon>
    </defs>
    <g id="Page-1" stroke="none" stroke-width="1" fill="none" fill-rule="evenodd">
        <g id="Group-98">
            <polygon id="Fill-1" fill="#000000" points="84.5371 175.0469 72.1621 175.0469 72.1621 122.5579 13.8401 122.5579 13.8401 175.0469 1.4641 175.0469 1.4641 69.7839 13.8401 69.7839 13.8401 111.4619 72.1621 111.4619 72.1621 69.7839 84.5371 69.7839"></polygon>
            <polygon id="Stroke-2" stroke="#000000" stroke-width="0.75" points="84.5371 175.0469 72.1621 175.0469 72.1621 122.5579 13.8401 122.5579 13.8401 175.0469 1.4641 175.0469 1.4641 69.7839 13.8401 69.7839 13.8401 111.4619 72.1621 111.4619 72.1621 69.7839 84.5371 69.7839"></polygon>
            <polygon id="Fill-4" fill="#000000" points="211.5649 175.0469 154.3809 175.0469 154.3809 69.7839 211.5649 69.7839 211.5649 81.1629 167.0409 81.1629 167.0409 112.3159 211.5649 112.3159 211.5649 123.1269 167.0409 123.1269 167.0409 163.6669 211.5649 163.6669"></polygon>
            <polygon id="Stroke-5" stroke="#000000" stroke-width="0.75" points="211.5649 175.0469 154.3809 175.0469 154.3809 69.7839 211.5649 69.7839 211.5649 81.1629 167.0409 81.1629 167.0409 112.3159 211.5649 112.3159 211.5649 123.1269 167.0409 123.1269 167.0409 163.6669 211.5649 163.6669"></polygon>
            <path d="M341.4521,132.7993 L323.7781,87.3553 L306.6901,132.7993 L341.4521,132.7993 Z M373.7291,175.0473 L358.9601,175.0353 L345.4931,142.3303 L303.5481,142.3303 L290.0471,175.0313 L276.4271,175.0473 L322.6601,66.7963 L326.0741,66.7963 L373.7291,175.0473 Z" id="Fill-6" fill="#000000"></path>
            <path d="M341.4521,132.7993 L323.7781,87.3553 L306.6901,132.7993 L341.4521,132.7993 Z M373.7291,175.0473 L358.9601,175.0353 L345.4931,142.3303 L303.5481,142.3303 L290.0471,175.0313 L276.4271,175.0473 L322.6601,66.7963 L326.0741,66.7963 L373.7291,175.0473 Z" id="Stroke-7" stroke="#000000" stroke-width="0.75"></path>
            <polygon id="Fill-8" fill="#000000" points="492.5039 175.0469 440.5829 175.0469 440.5829 69.7839 453.6699 69.7839 453.6699 163.6669 492.5039 163.6669"></polygon>
            <polygon id="Stroke-9" stroke="#000000" stroke-width="0.75" points="492.5039 175.0469 440.5829 175.0469 440.5829 69.7839 453.6699 69.7839 453.6699 163.6669 492.5039 163.6669"></polygon>
            <polygon id="Fill-10" fill="#000000" points="647.4121 80.8789 617.1131 80.8789 617.1131 175.0469 604.0261 175.0469 604.0261 80.8789 573.7271 80.8789 573.7271 69.7839 647.4121 69.7839"></polygon>
            <polygon id="Stroke-11" stroke="#000000" stroke-width="0.75" points="647.4121 80.8789 617.1131 80.8789 617.1131 175.0469 604.0261 175.0469 604.0261 80.8789 573.7271 80.8789 573.7271 69.7839 647.4121 69.7839"></polygon>
            <polygon id="Fill-12" fill="#000000" points="795.7764 175.0469 783.4014 175.0469 783.4014 122.5579 725.0794 122.5579 725.0794 175.0469 712.7044 175.0469 712.7044 69.7839 725.0794 69.7839 725.0794 111.4619 783.4014 111.4619 783.4014 69.7839 795.7764 69.7839"></polygon>
            <polygon id="Stroke-13" stroke="#000000" stroke-width="0.75" points="795.7764 175.0469 783.4014 175.0469 783.4014 122.5579 725.0794 122.5579 725.0794 175.0469 712.7044 175.0469 712.7044 69.7839 725.0794 69.7839 725.0794 111.4619 783.4014 111.4619 783.4014 69.7839 795.7764 69.7839"></polygon>
            <g id="Group-97">
                <path d="M933.7559,170.3525 C928.8239,172.4395 923.8209,174.0515 918.7489,175.1885 C913.6749,176.3275 908.5289,176.8955 903.3159,176.8955 C896.0119,176.8955 889.0409,175.7085 882.4039,173.3395 C875.7659,170.9705 869.6949,167.3655 864.1969,162.5295 C853.0059,151.1495 847.4119,137.7315 847.4119,122.2725 C847.4119,112.2225 850.0659,102.6915 855.3779,93.6815 C858.8849,88.2755 862.6319,83.7725 866.6149,80.1675 C871.0709,76.0915 876.0499,72.9135 881.5509,70.6375 C883.7319,69.7835 886.0319,69.0725 888.4499,68.5035 C890.8679,67.9345 893.3329,67.5075 895.8469,67.2235 C898.3589,66.9385 900.8009,66.7965 903.1729,66.7965 C906.6799,66.7965 910.3789,67.1055 914.2689,67.7205 C918.1549,68.3385 922.0429,69.2145 925.9329,70.3525 L933.7559,73.9085 L933.7559,87.8495 C924.9369,81.5895 915.2639,78.4605 904.7369,78.4605 C897.6249,78.4605 890.9859,79.9075 884.8229,82.7995 C878.6569,85.6925 873.3479,90.1245 868.8909,96.0995 C866.3309,99.8935 864.3609,104.0185 862.9879,108.4755 C861.6119,112.9335 860.9249,117.4855 860.9249,122.1305 C860.9249,130.1925 862.9389,137.7555 866.9709,144.8195 C870.9999,151.8845 876.5479,157.1945 883.6129,160.7505 C890.6769,164.3075 897.8599,166.0855 905.1639,166.0855 C913.0339,166.0855 920.1009,164.1425 926.3599,160.2525 L933.7559,155.5595 L933.7559,170.3525 Z" id="Fill-14" fill="#000000"></path>
                <path d="M933.7559,170.3525 C928.8239,172.4395 923.8209,174.0515 918.7489,175.1885 C913.6749,176.3275 908.5289,176.8955 903.3159,176.8955 C896.0119,176.8955 889.0409,175.7085 882.4039,173.3395 C875.7659,170.9705 869.6949,167.3655 864.1969,162.5295 C853.0059,151.1495 847.4119,137.7315 847.4119,122.2725 C847.4119,112.2225 850.0659,102.6915 855.3779,93.6815 C858.8849,88.2755 862.6319,83.7725 866.6149,80.1675 C871.0709,76.0915 876.0499,72.9135 881.5509,70.6375 C883.7319,69.7835 886.0319,69.0725 888.4499,68.5035 C890.8679,67.9345 893.3329,67.5075 895.8469,67.2235 C898.3589,66.9385 900.8009,66.7965 903.1729,66.7965 C906.6799,66.7965 910.3789,67.1055 914.2689,67.7205 C918.1549,68.3385 922.0429,69.2145 925.9329,70.3525 L933.7559,73.9085 L933.7559,87.8495 C924.9369,81.5895 915.2639,78.4605 904.7369,78.4605 C897.6249,78.4605 890.9859,79.9075 884.8229,82.7995 C878.6569,85.6925 873.3479,90.1245 868.8909,96.0995 C866.3309,99.8935 864.3609,104.0185 862.9879,108.4755 C861.6119,112.9335 860.9249,117.4855 860.9249,122.1305 C860.9249,130.1925 862.9389,137.7555 866.9709,144.8195 C870.9999,151.8845 876.5479,157.1945 883.6129,160.7505 C890.6769,164.3075 897.8599,166.0855 905.1639,166.0855 C913.0339,166.0855 920.1009,164.1425 926.3599,160.2525 L933.7559,155.5595 L933.7559,170.3525 Z" id="Stroke-16" stroke="#000000" stroke-width="0.75"></path>
                <path d="M1052.6914,132.7993 L1035.0164,87.3553 L1017.9294,132.7993 L1052.6914,132.7993 Z M1084.9674,175.0473 L1070.1984,175.0353 L1056.7314,142.3303 L1014.7864,142.3303 L1001.2864,175.0313 L987.6664,175.0473 L1033.8984,66.7963 L1037.3124,66.7963 L1084.9674,175.0473 Z" id="Fill-18" fill="#000000"></path>
                <path d="M1052.6914,132.7993 L1035.0164,87.3553 L1017.9294,132.7993 L1052.6914,132.7993 Z M1084.9674,175.0473 L1070.1984,175.0353 L1056.7314,142.3303 L1014.7864,142.3303 L1001.2864,175.0313 L987.6664,175.0473 L1033.8984,66.7963 L1037.3124,66.7963 L1084.9674,175.0473 Z" id="Stroke-20" stroke="#000000" stroke-width="0.75"></path>
                <path d="M1192.5049,82.4434 C1191.2719,81.9704 1189.9669,81.5684 1188.5939,81.2344 C1187.2179,80.9034 1185.9619,80.7364 1184.8239,80.7364 L1164.7669,80.7364 L1164.7669,116.0144 L1188.2379,116.0144 C1192.7899,116.0144 1196.3209,114.4274 1198.8349,111.2484 C1201.3469,108.0724 1202.6049,104.2074 1202.6049,99.6554 C1202.6049,95.8634 1201.7509,92.4014 1200.0449,89.2714 C1198.3379,86.1424 1195.8229,83.8664 1192.5049,82.4434 L1192.5049,82.4434 Z M1221.4169,175.0204 L1204.3119,175.0474 L1164.7669,121.2774 L1164.7669,175.0474 L1151.5379,175.0474 L1151.5379,69.7834 L1190.5139,70.2104 C1198.0039,70.2104 1204.2169,73.1514 1209.1489,79.0294 C1213.7939,84.5304 1216.1179,91.0274 1216.1179,98.5174 C1216.1179,102.5004 1215.4319,106.1984 1214.0579,109.6124 C1212.6849,113.0264 1210.4329,116.1564 1207.3079,119.0014 C1203.8029,121.8464 1199.9669,123.8864 1195.7989,125.1174 L1181.8749,125.0914 L1221.4169,175.0204 Z" id="Fill-22" fill="#000000"></path>
                <path d="M1192.5049,82.4434 C1191.2719,81.9704 1189.9669,81.5684 1188.5939,81.2344 C1187.2179,80.9034 1185.9619,80.7364 1184.8239,80.7364 L1164.7669,80.7364 L1164.7669,116.0144 L1188.2379,116.0144 C1192.7899,116.0144 1196.3209,114.4274 1198.8349,111.2484 C1201.3469,108.0724 1202.6049,104.2074 1202.6049,99.6554 C1202.6049,95.8634 1201.7509,92.4014 1200.0449,89.2714 C1198.3379,86.1424 1195.8229,83.8664 1192.5049,82.4434 Z M1221.4169,175.0204 L1204.3119,175.0474 L1164.7669,121.2774 L1164.7669,175.0474 L1151.5379,175.0474 L1151.5379,69.7834 L1190.5139,70.2104 C1198.0039,70.2104 1204.2169,73.1514 1209.1489,79.0294 C1213.7939,84.5304 1216.1179,91.0274 1216.1179,98.5174 C1216.1179,102.5004 1215.4319,106.1984 1214.0579,109.6124 C1212.6849,113.0264 1210.4329,116.1564 1207.3079,119.0014 C1203.8029,121.8464 1199.9669,123.8864 1195.7989,125.1174 L1181.8749,125.0914 L1221.4169,175.0204 Z" id="Stroke-24" stroke="#000000" stroke-width="0.75"></path>
                <polygon id="Fill-26" fill="#000000" points="1349.5469 175.0469 1292.3629 175.0469 1292.3629 69.7839 1349.5469 69.7839 1349.5469 81.1629 1305.0239 81.1629 1305.0239 112.3159 1349.5469 112.3159 1349.5469 123.1269 1305.0239 123.1269 1305.0239 163.6669 1349.5469 163.6669"></polygon>
                <polygon id="Stroke-28" stroke="#000000" stroke-width="0.75" points="1349.5469 175.0469 1292.3629 175.0469 1292.3629 69.7839 1349.5469 69.7839 1349.5469 81.1629 1305.0239 81.1629 1305.0239 112.3159 1349.5469 112.3159 1349.5469 123.1269 1305.0239 123.1269 1305.0239 163.6669 1349.5469 163.6669"></polygon>
                <path d="M69.5884,258.8306 L58.3504,264.0936 C57.3064,259.7326 54.7944,256.1996 50.8114,253.4966 C46.8284,250.7936 42.4654,249.4426 37.7254,249.4426 C34.2154,249.4426 31.1324,250.1316 28.4784,251.5046 C25.8224,252.8806 23.6424,255.1326 21.9354,258.2616 C20.7974,260.8226 20.2284,263.4316 20.2284,266.0856 C20.2284,272.4396 23.2154,277.2296 29.1904,280.4526 L56.2174,290.4096 C61.1474,293.1526 64.9164,296.8666 67.5254,301.5496 C70.1324,306.2326 71.4374,311.2226 71.4374,316.5186 C71.4374,321.0596 70.5134,325.4116 68.6634,329.5726 C66.8144,333.7356 64.0404,337.4246 60.3424,340.6406 C53.7034,345.2776 46.2594,347.5936 38.0094,347.5936 C30.6124,347.5936 23.8314,345.7446 17.6684,342.0456 C14.3474,339.5806 11.6934,336.5936 9.7024,333.0836 C8.1844,330.4306 6.7144,326.6366 5.2924,321.7046 L16.8144,315.8726 C16.8144,321.8466 18.9484,326.8256 23.2154,330.8086 C27.4834,334.7906 32.5084,336.7826 38.2944,336.7826 C40.5694,336.7826 42.8214,336.4286 45.0504,335.7196 C47.2774,335.0136 49.4604,333.8556 51.5944,332.2476 C53.7274,330.6436 55.4344,328.4696 56.7144,325.7296 C57.9954,322.9916 58.6354,320.1086 58.6354,317.0826 C58.6354,312.5486 57.1644,308.6776 54.2254,305.4636 C53.0874,304.3306 51.9254,303.3856 50.7404,302.6296 C49.5534,301.8736 47.1594,300.6936 43.5574,299.0866 L25.3514,292.6816 C19.9464,290.1206 15.5834,286.6386 12.2624,282.2286 C8.9424,277.8186 7.2834,272.8176 7.2834,267.2216 C7.2834,265.7986 7.4264,264.2826 7.7104,262.6696 C8.8484,256.7906 11.3134,251.7656 15.1074,247.5936 C18.8994,243.4216 23.6894,240.7656 29.4744,239.6276 C32.6974,238.9646 36.0644,238.6316 39.5744,238.6316 C41.0894,238.6316 42.2764,238.6806 43.1304,238.7736 C43.9844,238.8696 45.3104,239.0586 47.1134,239.3426 C52.4224,240.4806 57.0924,242.7566 61.1244,246.1706 C65.1544,249.5846 67.9744,253.8056 69.5884,258.8306" id="Fill-30" fill="#000000"></path>
                <path d="M69.5884,258.8306 L58.3504,264.0936 C57.3064,259.7326 54.7944,256.1996 50.8114,253.4966 C46.8284,250.7936 42.4654,249.4426 37.7254,249.4426 C34.2154,249.4426 31.1324,250.1316 28.4784,251.5046 C25.8224,252.8806 23.6424,255.1326 21.9354,258.2616 C20.7974,260.8226 20.2284,263.4316 20.2284,266.0856 C20.2284,272.4396 23.2154,277.2296 29.1904,280.4526 L56.2174,290.4096 C61.1474,293.1526 64.9164,296.8666 67.5254,301.5496 C70.1324,306.2326 71.4374,311.2226 71.4374,316.5186 C71.4374,321.0596 70.5134,325.4116 68.6634,329.5726 C66.8144,333.7356 64.0404,337.4246 60.3424,340.6406 C53.7034,345.2776 46.2594,347.5936 38.0094,347.5936 C30.6124,347.5936 23.8314,345.7446 17.6684,342.0456 C14.3474,339.5806 11.6934,336.5936 9.7024,333.0836 C8.1844,330.4306 6.7144,326.6366 5.2924,321.7046 L16.8144,315.8726 C16.8144,321.8466 18.9484,326.8256 23.2154,330.8086 C27.4834,334.7906 32.5084,336.7826 38.2944,336.7826 C40.5694,336.7826 42.8214,336.4286 45.0504,335.7196 C47.2774,335.0136 49.4604,333.8556 51.5944,332.2476 C53.7274,330.6436 55.4344,328.4696 56.7144,325.7296 C57.9954,322.9916 58.6354,320.1086 58.6354,317.0826 C58.6354,312.5486 57.1644,308.6776 54.2254,305.4636 C53.0874,304.3306 51.9254,303.3856 50.7404,302.6296 C49.5534,301.8736 47.1594,300.6936 43.5574,299.0866 L25.3514,292.6816 C19.9464,290.1206 15.5834,286.6386 12.2624,282.2286 C8.9424,277.8186 7.2834,272.8176 7.2834,267.2216 C7.2834,265.7986 7.4264,264.2826 7.7104,262.6696 C8.8484,256.7906 11.3134,251.7656 15.1074,247.5936 C18.8994,243.4216 23.6894,240.7656 29.4744,239.6276 C32.6974,238.9646 36.0644,238.6316 39.5744,238.6316 C41.0894,238.6316 42.2764,238.6806 43.1304,238.7736 C43.9844,238.8696 45.3104,239.0586 47.1134,239.3426 C52.4224,240.4806 57.0924,242.7566 61.1244,246.1706 C65.1544,249.5846 67.9744,253.8056 69.5884,258.8306 Z" id="Stroke-32" stroke="#000000" stroke-width="0.75"></path>
                <polygon id="Fill-34" fill="#000000" points="234.7378 251.5762 204.4388 251.5762 204.4388 345.7442 191.3528 345.7442 191.3528 251.5762 161.0538 251.5762 161.0538 240.4812 234.7378 240.4812"></polygon>
                <polygon id="Stroke-36" stroke="#000000" stroke-width="0.75" points="234.7378 251.5762 204.4388 251.5762 204.4388 345.7442 191.3528 345.7442 191.3528 251.5762 161.0538 251.5762 161.0538 240.4812 234.7378 240.4812"></polygon>
                <path d="M372.5918,303.4961 L354.9178,258.0531 L337.8298,303.4961 L372.5918,303.4961 Z M404.8688,345.7441 L390.0998,345.7331 L376.6328,313.0271 L334.6878,313.0271 L321.1868,345.7281 L307.5668,345.7441 L353.7998,237.4941 L357.2138,237.4941 L404.8688,345.7441 Z" id="Fill-38" fill="#000000"></path>
                <path d="M372.5918,303.4961 L354.9178,258.0531 L337.8298,303.4961 L372.5918,303.4961 Z M404.8688,345.7441 L390.0998,345.7331 L376.6328,313.0271 L334.6878,313.0271 L321.1868,345.7281 L307.5668,345.7441 L353.7998,237.4941 L357.2138,237.4941 L404.8688,345.7441 Z" id="Stroke-40" stroke="#000000" stroke-width="0.75"></path>
                <polygon id="Fill-42" fill="#000000" points="564.1836 348.0205 561.6226 348.0205 484.8106 263.5245 484.8106 345.7445 473.0036 345.7445 473.0036 237.9205 475.9686 237.9405 552.0936 322.5245 552.0936 240.4805 564.1836 240.4805"></polygon>
                <polygon id="Stroke-44" stroke="#000000" stroke-width="0.75" points="564.1836 348.0205 561.6226 348.0205 484.8106 263.5245 484.8106 345.7445 473.0036 345.7445 473.0036 237.9205 475.9686 237.9405 552.0936 322.5245 552.0936 240.4805 564.1836 240.4805"></polygon>
                <path d="M711.6953,286.2847 C710.9353,278.0347 707.7343,270.7327 702.0933,264.3787 C696.4503,258.0267 689.5513,253.9477 681.3963,252.1447 L649.8173,252.1447 L649.8173,334.3647 L676.9873,334.3647 C687.7023,334.3647 696.3793,329.9087 703.0183,320.9927 C709.0863,312.8377 712.1223,303.3077 712.1223,292.4017 C712.1223,290.3167 711.9793,288.2757 711.6953,286.2847 M699.3193,339.9117 C695.6213,341.7147 691.9233,343.1367 688.2243,344.1797 C684.5263,345.2237 680.8743,345.7437 677.2713,345.7437 L637.4423,345.7437 L637.4423,240.4807 L682.2503,240.4807 C695.6213,241.8097 706.3373,247.9267 714.3983,258.8307 C721.8883,268.8837 725.6353,280.6437 725.6353,294.1087 C725.6353,304.0657 723.5493,312.9337 719.3773,320.7087 C714.8253,329.2427 708.1383,335.6447 699.3193,339.9117" id="Fill-46" fill="#000000"></path>
                <path d="M711.6953,286.2847 C710.9353,278.0347 707.7343,270.7327 702.0933,264.3787 C696.4503,258.0267 689.5513,253.9477 681.3963,252.1447 L649.8173,252.1447 L649.8173,334.3647 L676.9873,334.3647 C687.7023,334.3647 696.3793,329.9087 703.0183,320.9927 C709.0863,312.8377 712.1223,303.3077 712.1223,292.4017 C712.1223,290.3167 711.9793,288.2757 711.6953,286.2847 Z M699.3193,339.9117 C695.6213,341.7147 691.9233,343.1367 688.2243,344.1797 C684.5263,345.2237 680.8743,345.7437 677.2713,345.7437 L637.4423,345.7437 L637.4423,240.4807 L682.2503,240.4807 C695.6213,241.8097 706.3373,247.9267 714.3983,258.8307 C721.8883,268.8837 725.6353,280.6437 725.6353,294.1087 C725.6353,304.0657 723.5493,312.9337 719.3773,320.7087 C714.8253,329.2427 708.1383,335.6447 699.3193,339.9117 Z" id="Stroke-48" stroke="#000000" stroke-width="0.75"></path>
                <path d="M850.5449,303.4961 L832.8699,258.0531 L815.7829,303.4961 L850.5449,303.4961 Z M882.8209,345.7441 L868.0519,345.7331 L854.5849,313.0271 L812.6399,313.0271 L799.1399,345.7281 L785.5199,345.7441 L831.7519,237.4941 L835.1659,237.4941 L882.8209,345.7441 Z" id="Fill-50" fill="#000000"></path>
                <path d="M850.5449,303.4961 L832.8699,258.0531 L815.7829,303.4961 L850.5449,303.4961 Z M882.8209,345.7441 L868.0519,345.7331 L854.5849,313.0271 L812.6399,313.0271 L799.1399,345.7281 L785.5199,345.7441 L831.7519,237.4941 L835.1659,237.4941 L882.8209,345.7441 Z" id="Stroke-52" stroke="#000000" stroke-width="0.75"></path>
                <path d="M1007.4277,253.1406 C1006.1947,252.6676 1004.8897,252.2656 1003.5167,251.9316 C1002.1407,251.6006 1000.8847,251.4336 999.7467,251.4336 L979.6897,251.4336 L979.6897,286.7116 L1003.1607,286.7116 C1007.7127,286.7116 1011.2437,285.1246 1013.7577,281.9456 C1016.2697,278.7696 1017.5277,274.9046 1017.5277,270.3526 C1017.5277,266.5606 1016.6737,263.0986 1014.9677,259.9686 C1013.2607,256.8396 1010.7457,254.5636 1007.4277,253.1406 L1007.4277,253.1406 Z M1036.3397,345.7176 L1019.2347,345.7446 L979.6897,291.9746 L979.6897,345.7446 L966.4607,345.7446 L966.4607,240.4806 L1005.4367,240.9076 C1012.9267,240.9076 1019.1397,243.8486 1024.0717,249.7266 C1028.7167,255.2276 1031.0407,261.7246 1031.0407,269.2146 C1031.0407,273.1976 1030.3547,276.8956 1028.9807,280.3096 C1027.6077,283.7236 1025.3557,286.8536 1022.2307,289.6986 C1018.7257,292.5436 1014.8897,294.5836 1010.7217,295.8156 L996.7977,295.7876 L1036.3397,345.7176 Z" id="Fill-54" fill="#000000"></path>
                <path d="M1007.4277,253.1406 C1006.1947,252.6676 1004.8897,252.2656 1003.5167,251.9316 C1002.1407,251.6006 1000.8847,251.4336 999.7467,251.4336 L979.6897,251.4336 L979.6897,286.7116 L1003.1607,286.7116 C1007.7127,286.7116 1011.2437,285.1246 1013.7577,281.9456 C1016.2697,278.7696 1017.5277,274.9046 1017.5277,270.3526 C1017.5277,266.5606 1016.6737,263.0986 1014.9677,259.9686 C1013.2607,256.8396 1010.7457,254.5636 1007.4277,253.1406 Z M1036.3397,345.7176 L1019.2347,345.7446 L979.6897,291.9746 L979.6897,345.7446 L966.4607,345.7446 L966.4607,240.4806 L1005.4367,240.9076 C1012.9267,240.9076 1019.1397,243.8486 1024.0717,249.7266 C1028.7167,255.2276 1031.0407,261.7246 1031.0407,269.2146 C1031.0407,273.1976 1030.3547,276.8956 1028.9807,280.3096 C1027.6077,283.7236 1025.3557,286.8536 1022.2307,289.6986 C1018.7257,292.5436 1014.8897,294.5836 1010.7217,295.8156 L996.7977,295.7876 L1036.3397,345.7176 Z" id="Stroke-56" stroke="#000000" stroke-width="0.75"></path>
                <path d="M1189.6475,286.2847 C1188.8875,278.0347 1185.6865,270.7327 1180.0455,264.3787 C1174.4025,258.0267 1167.5035,253.9477 1159.3485,252.1447 L1127.7695,252.1447 L1127.7695,334.3647 L1154.9395,334.3647 C1165.6545,334.3647 1174.3315,329.9087 1180.9705,320.9927 C1187.0385,312.8377 1190.0745,303.3077 1190.0745,292.4017 C1190.0745,290.3167 1189.9315,288.2757 1189.6475,286.2847 M1177.2715,339.9117 C1173.5735,341.7147 1169.8755,343.1367 1166.1765,344.1797 C1162.4785,345.2237 1158.8265,345.7437 1155.2235,345.7437 L1115.3945,345.7437 L1115.3945,240.4807 L1160.2025,240.4807 C1173.5735,241.8097 1184.2895,247.9267 1192.3505,258.8307 C1199.8405,268.8837 1203.5875,280.6437 1203.5875,294.1087 C1203.5875,304.0657 1201.5015,312.9337 1197.3295,320.7087 C1192.7775,329.2427 1186.0905,335.6447 1177.2715,339.9117" id="Fill-58" fill="#000000"></path>
                <path d="M1189.6475,286.2847 C1188.8875,278.0347 1185.6865,270.7327 1180.0455,264.3787 C1174.4025,258.0267 1167.5035,253.9477 1159.3485,252.1447 L1127.7695,252.1447 L1127.7695,334.3647 L1154.9395,334.3647 C1165.6545,334.3647 1174.3315,329.9087 1180.9705,320.9927 C1187.0385,312.8377 1190.0745,303.3077 1190.0745,292.4017 C1190.0745,290.3167 1189.9315,288.2757 1189.6475,286.2847 Z M1177.2715,339.9117 C1173.5735,341.7147 1169.8755,343.1367 1166.1765,344.1797 C1162.4785,345.2237 1158.8265,345.7437 1155.2235,345.7437 L1115.3945,345.7437 L1115.3945,240.4807 L1160.2025,240.4807 C1173.5735,241.8097 1184.2895,247.9267 1192.3505,258.8307 C1199.8405,268.8837 1203.5875,280.6437 1203.5875,294.1087 C1203.5875,304.0657 1201.5015,312.9337 1197.3295,320.7087 C1192.7775,329.2427 1186.0905,335.6447 1177.2715,339.9117 Z" id="Stroke-60" stroke="#000000" stroke-width="0.75"></path>
                <path d="M1344.1279,258.8306 L1332.8909,264.0936 C1331.8469,259.7326 1329.3349,256.1996 1325.3519,253.4966 C1321.3689,250.7936 1317.0059,249.4426 1312.2649,249.4426 C1308.7559,249.4426 1305.6729,250.1316 1303.0189,251.5046 C1300.3619,252.8806 1298.1829,255.1326 1296.4759,258.2616 C1295.3379,260.8226 1294.7689,263.4316 1294.7689,266.0856 C1294.7689,272.4396 1297.7559,277.2296 1303.7309,280.4526 L1330.7569,290.4096 C1335.6869,293.1526 1339.4559,296.8666 1342.0649,301.5496 C1344.6729,306.2326 1345.9779,311.2226 1345.9779,316.5186 C1345.9779,321.0596 1345.0529,325.4116 1343.2039,329.5726 C1341.3549,333.7356 1338.5809,337.4246 1334.8819,340.6406 C1328.2429,345.2776 1320.7999,347.5936 1312.5499,347.5936 C1305.1519,347.5936 1298.3709,345.7446 1292.2079,342.0456 C1288.8879,339.5806 1286.2329,336.5936 1284.2419,333.0836 C1282.7239,330.4306 1281.2549,326.6366 1279.8319,321.7046 L1291.3549,315.8726 C1291.3549,321.8466 1293.4879,326.8256 1297.7559,330.8086 C1302.0239,334.7906 1307.0489,336.7826 1312.8339,336.7826 C1315.1089,336.7826 1317.3609,336.4286 1319.5909,335.7196 C1321.8169,335.0136 1323.9999,333.8556 1326.1339,332.2476 C1328.2679,330.6436 1329.9749,328.4696 1331.2549,325.7296 C1332.5349,322.9916 1333.1759,320.1086 1333.1759,317.0826 C1333.1759,312.5486 1331.7039,308.6776 1328.7659,305.4636 C1327.6279,304.3306 1326.4649,303.3856 1325.2799,302.6296 C1324.0939,301.8736 1321.6999,300.6936 1318.0969,299.0866 L1299.8919,292.6816 C1294.4859,290.1206 1290.1229,286.6386 1286.8029,282.2286 C1283.4819,277.8186 1281.8239,272.8176 1281.8239,267.2216 C1281.8239,265.7986 1281.9659,264.2826 1282.2509,262.6696 C1283.3889,256.7906 1285.8539,251.7656 1289.6479,247.5936 C1293.4399,243.4216 1298.2299,240.7656 1304.0149,239.6276 C1307.2369,238.9646 1310.6049,238.6316 1314.1139,238.6316 C1315.6299,238.6316 1316.8159,238.6806 1317.6699,238.7736 C1318.5239,238.8696 1319.8509,239.0586 1321.6529,239.3426 C1326.9629,240.4806 1331.6329,242.7566 1335.6649,246.1706 C1339.6939,249.5846 1342.5149,253.8056 1344.1279,258.8306" id="Fill-62" fill="#000000"></path>
                <path d="M1344.1279,258.8306 L1332.8909,264.0936 C1331.8469,259.7326 1329.3349,256.1996 1325.3519,253.4966 C1321.3689,250.7936 1317.0059,249.4426 1312.2649,249.4426 C1308.7559,249.4426 1305.6729,250.1316 1303.0189,251.5046 C1300.3619,252.8806 1298.1829,255.1326 1296.4759,258.2616 C1295.3379,260.8226 1294.7689,263.4316 1294.7689,266.0856 C1294.7689,272.4396 1297.7559,277.2296 1303.7309,280.4526 L1330.7569,290.4096 C1335.6869,293.1526 1339.4559,296.8666 1342.0649,301.5496 C1344.6729,306.2326 1345.9779,311.2226 1345.9779,316.5186 C1345.9779,321.0596 1345.0529,325.4116 1343.2039,329.5726 C1341.3549,333.7356 1338.5809,337.4246 1334.8819,340.6406 C1328.2429,345.2776 1320.7999,347.5936 1312.5499,347.5936 C1305.1519,347.5936 1298.3709,345.7446 1292.2079,342.0456 C1288.8879,339.5806 1286.2329,336.5936 1284.2419,333.0836 C1282.7239,330.4306 1281.2549,326.6366 1279.8319,321.7046 L1291.3549,315.8726 C1291.3549,321.8466 1293.4879,326.8256 1297.7559,330.8086 C1302.0239,334.7906 1307.0489,336.7826 1312.8339,336.7826 C1315.1089,336.7826 1317.3609,336.4286 1319.5909,335.7196 C1321.8169,335.0136 1323.9999,333.8556 1326.1339,332.2476 C1328.2679,330.6436 1329.9749,328.4696 1331.2549,325.7296 C1332.5349,322.9916 1333.1759,320.1086 1333.1759,317.0826 C1333.1759,312.5486 1331.7039,308.6776 1328.7659,305.4636 C1327.6279,304.3306 1326.4649,303.3856 1325.2799,302.6296 C1324.0939,301.8736 1321.6999,300.6936 1318.0969,299.0866 L1299.8919,292.6816 C1294.4859,290.1206 1290.1229,286.6386 1286.8029,282.2286 C1283.4819,277.8186 1281.8239,272.8176 1281.8239,267.2216 C1281.8239,265.7986 1281.9659,264.2826 1282.2509,262.6696 C1283.3889,256.7906 1285.8539,251.7656 1289.6479,247.5936 C1293.4399,243.4216 1298.2299,240.7656 1304.0149,239.6276 C1307.2369,238.9646 1310.6049,238.6316 1314.1139,238.6316 C1315.6299,238.6316 1316.8159,238.6806 1317.6699,238.7736 C1318.5239,238.8696 1319.8509,239.0586 1321.6529,239.3426 C1326.9629,240.4806 1331.6329,242.7566 1335.6649,246.1706 C1339.6939,249.5846 1342.5149,253.8056 1344.1279,258.8306 Z" id="Stroke-64" stroke="#000000" stroke-width="0.75"></path>
                <path d="M69.5884,429.5283 L58.3504,434.7913 C57.3064,430.4303 54.7944,426.8963 50.8114,424.1933 C46.8284,421.4913 42.4654,420.1393 37.7254,420.1393 C34.2154,420.1393 31.1324,420.8293 28.4784,422.2023 C25.8224,423.5783 23.6424,425.8293 21.9354,428.9593 C20.7974,431.5193 20.2284,434.1293 20.2284,436.7823 C20.2284,443.1363 23.2154,447.9263 29.1904,451.1493 L56.2174,461.1073 C61.1474,463.8493 64.9164,467.5633 67.5254,472.2473 C70.1324,476.9293 71.4374,481.9203 71.4374,487.2163 C71.4374,491.7573 70.5134,496.1083 68.6634,500.2693 C66.8144,504.4323 64.0404,508.1223 60.3424,511.3383 C53.7034,515.9743 46.2594,518.2913 38.0094,518.2913 C30.6124,518.2913 23.8314,516.4413 17.6684,512.7433 C14.3474,510.2783 11.6934,507.2913 9.7024,503.7813 C8.1844,501.1283 6.7144,497.3343 5.2924,492.4013 L16.8144,486.5693 C16.8144,492.5443 18.9484,497.5223 23.2154,501.5063 C27.4834,505.4883 32.5084,507.4793 38.2944,507.4793 C40.5694,507.4793 42.8214,507.1263 45.0504,506.4173 C47.2774,505.7113 49.4604,504.5523 51.5944,502.9453 C53.7274,501.3413 55.4344,499.1673 56.7144,496.4263 C57.9954,493.6883 58.6354,490.8053 58.6354,487.7803 C58.6354,483.2463 57.1644,479.3753 54.2254,476.1613 C53.0874,475.0273 51.9254,474.0833 50.7404,473.3273 C49.5534,472.5713 47.1594,471.3903 43.5574,469.7843 L25.3514,463.3793 C19.9464,460.8183 15.5834,457.3353 12.2624,452.9253 C8.9424,448.5153 7.2834,443.5143 7.2834,437.9183 C7.2834,436.4963 7.4264,434.9803 7.7104,433.3663 C8.8484,427.4873 11.3134,422.4623 15.1074,418.2903 C18.8994,414.1183 23.6894,411.4633 29.4744,410.3243 C32.6974,409.6623 36.0644,409.3293 39.5744,409.3293 C41.0894,409.3293 42.2764,409.3783 43.1304,409.4703 C43.9844,409.5663 45.3104,409.7563 47.1134,410.0403 C52.4224,411.1773 57.0924,413.4543 61.1244,416.8683 C65.1544,420.2823 67.9744,424.5033 69.5884,429.5283" id="Fill-66" fill="#000000"></path>
                <path d="M69.5884,429.5283 L58.3504,434.7913 C57.3064,430.4303 54.7944,426.8963 50.8114,424.1933 C46.8284,421.4913 42.4654,420.1393 37.7254,420.1393 C34.2154,420.1393 31.1324,420.8293 28.4784,422.2023 C25.8224,423.5783 23.6424,425.8293 21.9354,428.9593 C20.7974,431.5193 20.2284,434.1293 20.2284,436.7823 C20.2284,443.1363 23.2154,447.9263 29.1904,451.1493 L56.2174,461.1073 C61.1474,463.8493 64.9164,467.5633 67.5254,472.2473 C70.1324,476.9293 71.4374,481.9203 71.4374,487.2163 C71.4374,491.7573 70.5134,496.1083 68.6634,500.2693 C66.8144,504.4323 64.0404,508.1223 60.3424,511.3383 C53.7034,515.9743 46.2594,518.2913 38.0094,518.2913 C30.6124,518.2913 23.8314,516.4413 17.6684,512.7433 C14.3474,510.2783 11.6934,507.2913 9.7024,503.7813 C8.1844,501.1283 6.7144,497.3343 5.2924,492.4013 L16.8144,486.5693 C16.8144,492.5443 18.9484,497.5223 23.2154,501.5063 C27.4834,505.4883 32.5084,507.4793 38.2944,507.4793 C40.5694,507.4793 42.8214,507.1263 45.0504,506.4173 C47.2774,505.7113 49.4604,504.5523 51.5944,502.9453 C53.7274,501.3413 55.4344,499.1673 56.7144,496.4263 C57.9954,493.6883 58.6354,490.8053 58.6354,487.7803 C58.6354,483.2463 57.1644,479.3753 54.2254,476.1613 C53.0874,475.0273 51.9254,474.0833 50.7404,473.3273 C49.5534,472.5713 47.1594,471.3903 43.5574,469.7843 L25.3514,463.3793 C19.9464,460.8183 15.5834,457.3353 12.2624,452.9253 C8.9424,448.5153 7.2834,443.5143 7.2834,437.9183 C7.2834,436.4963 7.4264,434.9803 7.7104,433.3663 C8.8484,427.4873 11.3134,422.4623 15.1074,418.2903 C18.8994,414.1183 23.6894,411.4633 29.4744,410.3243 C32.6974,409.6623 36.0644,409.3293 39.5744,409.3293 C41.0894,409.3293 42.2764,409.3783 43.1304,409.4703 C43.9844,409.5663 45.3104,409.7563 47.1134,410.0403 C52.4224,411.1773 57.0924,413.4543 61.1244,416.8683 C65.1544,420.2823 67.9744,424.5033 69.5884,429.5283 Z" id="Stroke-68" stroke="#000000" stroke-width="0.75"></path>
                <path d="M242.9888,462.7432 C242.9888,450.6792 238.6258,440.4682 229.9018,432.1082 C221.1758,423.7512 210.6978,419.5702 198.4648,419.5702 C186.4208,419.5702 176.2258,423.9402 167.8818,432.6802 C159.5358,441.4192 155.3638,451.9142 155.3638,464.1682 C155.3638,476.2322 159.7028,486.4182 168.3798,494.7282 C177.0568,503.0412 187.5588,507.1952 199.8878,507.1952 C211.9298,507.1952 222.1248,502.8282 230.4708,494.0892 C238.8148,485.3492 242.9888,474.9002 242.9888,462.7432 M256.0748,463.0272 C256.0748,478.5982 250.5988,491.8702 239.6458,502.8372 C228.6928,513.8032 215.4388,519.2862 199.8878,519.2862 C184.1448,519.2862 170.6778,514.0652 159.4888,503.6192 C148.0138,492.8902 142.2778,479.8352 142.2778,464.4502 C142.2778,448.8782 147.7538,435.6092 158.7068,424.6422 C169.6598,413.6762 182.9108,408.1902 198.4648,408.1902 C214.2058,408.1902 227.7438,413.4852 239.0768,424.0712 C250.4078,434.6602 256.0748,447.6442 256.0748,463.0272" id="Fill-70" fill="#000000"></path>
                <path d="M242.9888,462.7432 C242.9888,450.6792 238.6258,440.4682 229.9018,432.1082 C221.1758,423.7512 210.6978,419.5702 198.4648,419.5702 C186.4208,419.5702 176.2258,423.9402 167.8818,432.6802 C159.5358,441.4192 155.3638,451.9142 155.3638,464.1682 C155.3638,476.2322 159.7028,486.4182 168.3798,494.7282 C177.0568,503.0412 187.5588,507.1952 199.8878,507.1952 C211.9298,507.1952 222.1248,502.8282 230.4708,494.0892 C238.8148,485.3492 242.9888,474.9002 242.9888,462.7432 Z M256.0748,463.0272 C256.0748,478.5982 250.5988,491.8702 239.6458,502.8372 C228.6928,513.8032 215.4388,519.2862 199.8878,519.2862 C184.1448,519.2862 170.6778,514.0652 159.4888,503.6192 C148.0138,492.8902 142.2778,479.8352 142.2778,464.4502 C142.2778,448.8782 147.7538,435.6092 158.7068,424.6422 C169.6598,413.6762 182.9108,408.1902 198.4648,408.1902 C214.2058,408.1902 227.7438,413.4852 239.0768,424.0712 C250.4078,434.6602 256.0748,447.6442 256.0748,463.0272 Z" id="Stroke-72" stroke="#000000" stroke-width="0.75"></path>
                <polygon id="Fill-74" fill="#000000" points="380.8262 516.4414 328.9062 516.4414 328.9062 411.1774 341.9932 411.1774 341.9932 505.0614 380.8262 505.0614"></polygon>
                <polygon id="Stroke-76" stroke="#000000" stroke-width="0.75" points="380.8262 516.4414 328.9062 516.4414 328.9062 411.1774 341.9932 411.1774 341.9932 505.0614 380.8262 505.0614"></polygon>
                <path d="M559.2051,411.1777 L558.9201,482.8707 C558.9201,489.1297 557.1641,495.1287 553.6581,500.8657 C550.1481,506.6047 545.5961,510.9427 540.0021,513.8807 C532.2251,517.3887 524.1641,519.1447 515.8201,519.1447 C507.4751,519.1447 500.1231,517.3887 493.7711,513.8807 C486.8481,509.9927 481.6801,504.2567 478.2661,496.6687 C477.3161,494.2997 476.5351,491.8327 475.9201,489.2727 C475.3011,486.7117 474.9941,484.3887 474.9941,482.3017 L474.9941,411.1777 L487.6541,411.1777 L487.6541,482.3017 C488.3161,487.2347 489.6461,491.5007 491.6371,495.1047 C494.0081,499.3717 497.2321,502.5007 501.3101,504.4917 C506.6211,506.7687 511.9781,507.9067 517.3851,507.9067 C521.6521,507.9067 525.5861,507.2197 529.1911,505.8437 C532.7931,504.4707 535.9241,502.2657 538.5801,499.2297 C540.9491,496.5747 542.8221,493.8487 544.1971,491.0497 C545.5721,488.2537 546.2621,485.3377 546.2621,482.3017 L546.2621,481.1637 L546.2621,411.1777 L559.2051,411.1777 Z" id="Fill-78" fill="#000000"></path>
                <path d="M559.2051,411.1777 L558.9201,482.8707 C558.9201,489.1297 557.1641,495.1287 553.6581,500.8657 C550.1481,506.6047 545.5961,510.9427 540.0021,513.8807 C532.2251,517.3887 524.1641,519.1447 515.8201,519.1447 C507.4751,519.1447 500.1231,517.3887 493.7711,513.8807 C486.8481,509.9927 481.6801,504.2567 478.2661,496.6687 C477.3161,494.2997 476.5351,491.8327 475.9201,489.2727 C475.3011,486.7117 474.9941,484.3887 474.9941,482.3017 L474.9941,411.1777 L487.6541,411.1777 L487.6541,482.3017 C488.3161,487.2347 489.6461,491.5007 491.6371,495.1047 C494.0081,499.3717 497.2321,502.5007 501.3101,504.4917 C506.6211,506.7687 511.9781,507.9067 517.3851,507.9067 C521.6521,507.9067 525.5861,507.2197 529.1911,505.8437 C532.7931,504.4707 535.9241,502.2657 538.5801,499.2297 C540.9491,496.5747 542.8221,493.8487 544.1971,491.0497 C545.5721,488.2537 546.2621,485.3377 546.2621,482.3017 L546.2621,481.1637 L546.2621,411.1777 L559.2051,411.1777 Z" id="Stroke-80" stroke="#000000" stroke-width="0.75"></path>
                <polygon id="Fill-82" fill="#000000" points="711.5527 422.2734 681.2537 422.2734 681.2537 516.4414 668.1667 516.4414 668.1667 422.2734 637.8677 422.2734 637.8677 411.1774 711.5527 411.1774"></polygon>
                <polygon id="Stroke-84" stroke="#000000" stroke-width="0.75" points="711.5527 422.2734 681.2537 422.2734 681.2537 516.4414 668.1667 516.4414 668.1667 422.2734 637.8677 422.2734 637.8677 411.1774 711.5527 411.1774"></polygon>
                <mask id="mask-2" fill="white">
                    <use xlink:href="#path-1"></use>
                </mask>
                <g id="Clip-87"></g>
                <polygon id="Fill-86" fill="#000000" mask="url(#mask-2)" points="827.484 516.441 839.86 516.441 839.86 411.177 827.484 411.177"></polygon>
                <polygon id="Stroke-88" stroke="#000000" stroke-width="0.75" mask="url(#mask-2)" points="827.484 516.441 839.86 516.441 839.86 411.177 827.484 411.177"></polygon>
                <path d="M1038.1533,462.7432 C1038.1533,450.6792 1033.7913,440.4682 1025.0663,432.1082 C1016.3413,423.7512 1005.8633,419.5702 993.6303,419.5702 C981.5863,419.5702 971.3903,423.9402 963.0473,432.6802 C954.7013,441.4192 950.5293,451.9142 950.5293,464.1682 C950.5293,476.2322 954.8673,486.4182 963.5453,494.7282 C972.2213,503.0412 982.7233,507.1952 995.0523,507.1952 C1007.0943,507.1952 1017.2903,502.8282 1025.6353,494.0892 C1033.9793,485.3492 1038.1533,474.9002 1038.1533,462.7432 M1051.2403,463.0272 C1051.2403,478.5982 1045.7633,491.8702 1034.8103,502.8372 C1023.8573,513.8032 1010.6043,519.2862 995.0523,519.2862 C979.3093,519.2862 965.8423,514.0652 954.6543,503.6192 C943.1783,492.8902 937.4423,479.8352 937.4423,464.4502 C937.4423,448.8782 942.9193,435.6092 953.8723,424.6422 C964.8253,413.6762 978.0763,408.1902 993.6303,408.1902 C1009.3713,408.1902 1022.9083,413.4852 1034.2423,424.0712 C1045.5723,434.6602 1051.2403,447.6442 1051.2403,463.0272" id="Fill-89" fill="#000000" mask="url(#mask-2)"></path>
                <path d="M1038.1533,462.7432 C1038.1533,450.6792 1033.7913,440.4682 1025.0663,432.1082 C1016.3413,423.7512 1005.8633,419.5702 993.6303,419.5702 C981.5863,419.5702 971.3903,423.9402 963.0473,432.6802 C954.7013,441.4192 950.5293,451.9142 950.5293,464.1682 C950.5293,476.2322 954.8673,486.4182 963.5453,494.7282 C972.2213,503.0412 982.7233,507.1952 995.0523,507.1952 C1007.0943,507.1952 1017.2903,502.8282 1025.6353,494.0892 C1033.9793,485.3492 1038.1533,474.9002 1038.1533,462.7432 Z M1051.2403,463.0272 C1051.2403,478.5982 1045.7633,491.8702 1034.8103,502.8372 C1023.8573,513.8032 1010.6043,519.2862 995.0523,519.2862 C979.3093,519.2862 965.8423,514.0652 954.6543,503.6192 C943.1783,492.8902 937.4423,479.8352 937.4423,464.4502 C937.4423,448.8782 942.9193,435.6092 953.8723,424.6422 C964.8253,413.6762 978.0763,408.1902 993.6303,408.1902 C1009.3713,408.1902 1022.9083,413.4852 1034.2423,424.0712 C1045.5723,434.6602 1051.2403,447.6442 1051.2403,463.0272 Z" id="Stroke-90" stroke="#000000" stroke-width="0.75" mask="url(#mask-2)"></path>
                <polygon id="Fill-91" fill="#000000" mask="url(#mask-2)" points="1199.4629 518.7178 1196.9019 518.7178 1120.0889 434.2228 1120.0889 516.4418 1108.2819 516.4418 1108.2819 408.6168 1111.2469 408.6378 1187.3719 493.2218 1187.3719 411.1778 1199.4629 411.1778"></polygon>
                <polygon id="Stroke-92" stroke="#000000" stroke-width="0.75" mask="url(#mask-2)" points="1199.4629 518.7178 1196.9019 518.7178 1120.0889 434.2228 1120.0889 516.4418 1108.2819 516.4418 1108.2819 408.6168 1111.2469 408.6378 1187.3719 493.2218 1187.3719 411.1778 1199.4629 411.1778"></polygon>
                <path d="M1341.8525,429.5283 L1330.6155,434.7913 C1329.5715,430.4303 1327.0595,426.8963 1323.0765,424.1933 C1319.0935,421.4913 1314.7305,420.1393 1309.9895,420.1393 C1306.4805,420.1393 1303.3975,420.8293 1300.7435,422.2023 C1298.0865,423.5783 1295.9075,425.8293 1294.2005,428.9593 C1293.0625,431.5193 1292.4935,434.1293 1292.4935,436.7823 C1292.4935,443.1363 1295.4805,447.9263 1301.4555,451.1493 L1328.4815,461.1073 C1333.4115,463.8493 1337.1805,467.5633 1339.7895,472.2473 C1342.3975,476.9293 1343.7025,481.9203 1343.7025,487.2163 C1343.7025,491.7573 1342.7775,496.1083 1340.9285,500.2693 C1339.0795,504.4323 1336.3055,508.1223 1332.6065,511.3383 C1325.9675,515.9743 1318.5245,518.2913 1310.2745,518.2913 C1302.8765,518.2913 1296.0955,516.4413 1289.9325,512.7433 C1286.6125,510.2783 1283.9575,507.2913 1281.9665,503.7813 C1280.4485,501.1283 1278.9795,497.3343 1277.5565,492.4013 L1289.0795,486.5693 C1289.0795,492.5443 1291.2125,497.5223 1295.4805,501.5063 C1299.7485,505.4883 1304.7735,507.4793 1310.5585,507.4793 C1312.8335,507.4793 1315.0855,507.1263 1317.3155,506.4173 C1319.5415,505.7113 1321.7245,504.5523 1323.8585,502.9453 C1325.9925,501.3413 1327.6995,499.1673 1328.9795,496.4263 C1330.2595,493.6883 1330.9005,490.8053 1330.9005,487.7803 C1330.9005,483.2463 1329.4285,479.3753 1326.4905,476.1613 C1325.3525,475.0273 1324.1895,474.0833 1323.0045,473.3273 C1321.8185,472.5713 1319.4245,471.3903 1315.8215,469.7843 L1297.6165,463.3793 C1292.2105,460.8183 1287.8475,457.3353 1284.5275,452.9253 C1281.2065,448.5153 1279.5485,443.5143 1279.5485,437.9183 C1279.5485,436.4963 1279.6905,434.9803 1279.9755,433.3663 C1281.1135,427.4873 1283.5785,422.4623 1287.3725,418.2903 C1291.1645,414.1183 1295.9545,411.4633 1301.7395,410.3243 C1304.9615,409.6623 1308.3295,409.3293 1311.8385,409.3293 C1313.3545,409.3293 1314.5405,409.3783 1315.3945,409.4703 C1316.2485,409.5663 1317.5755,409.7563 1319.3775,410.0403 C1324.6875,411.1773 1329.3575,413.4543 1333.3895,416.8683 C1337.4185,420.2823 1340.2395,424.5033 1341.8525,429.5283" id="Fill-93" fill="#000000" mask="url(#mask-2)"></path>
                <path d="M1341.8525,429.5283 L1330.6155,434.7913 C1329.5715,430.4303 1327.0595,426.8963 1323.0765,424.1933 C1319.0935,421.4913 1314.7305,420.1393 1309.9895,420.1393 C1306.4805,420.1393 1303.3975,420.8293 1300.7435,422.2023 C1298.0865,423.5783 1295.9075,425.8293 1294.2005,428.9593 C1293.0625,431.5193 1292.4935,434.1293 1292.4935,436.7823 C1292.4935,443.1363 1295.4805,447.9263 1301.4555,451.1493 L1328.4815,461.1073 C1333.4115,463.8493 1337.1805,467.5633 1339.7895,472.2473 C1342.3975,476.9293 1343.7025,481.9203 1343.7025,487.2163 C1343.7025,491.7573 1342.7775,496.1083 1340.9285,500.2693 C1339.0795,504.4323 1336.3055,508.1223 1332.6065,511.3383 C1325.9675,515.9743 1318.5245,518.2913 1310.2745,518.2913 C1302.8765,518.2913 1296.0955,516.4413 1289.9325,512.7433 C1286.6125,510.2783 1283.9575,507.2913 1281.9665,503.7813 C1280.4485,501.1283 1278.9795,497.3343 1277.5565,492.4013 L1289.0795,486.5693 C1289.0795,492.5443 1291.2125,497.5223 1295.4805,501.5063 C1299.7485,505.4883 1304.7735,507.4793 1310.5585,507.4793 C1312.8335,507.4793 1315.0855,507.1263 1317.3155,506.4173 C1319.5415,505.7113 1321.7245,504.5523 1323.8585,502.9453 C1325.9925,501.3413 1327.6995,499.1673 1328.9795,496.4263 C1330.2595,493.6883 1330.9005,490.8053 1330.9005,487.7803 C1330.9005,483.2463 1329.4285,479.3753 1326.4905,476.1613 C1325.3525,475.0273 1324.1895,474.0833 1323.0045,473.3273 C1321.8185,472.5713 1319.4245,471.3903 1315.8215,469.7843 L1297.6165,463.3793 C1292.2105,460.8183 1287.8475,457.3353 1284.5275,452.9253 C1281.2065,448.5153 1279.5485,443.5143 1279.5485,437.9183 C1279.5485,436.4963 1279.6905,434.9803 1279.9755,433.3663 C1281.1135,427.4873 1283.5785,422.4623 1287.3725,418.2903 C1291.1645,414.1183 1295.9545,411.4633 1301.7395,410.3243 C1304.9615,409.6623 1308.3295,409.3293 1311.8385,409.3293 C1313.3545,409.3293 1314.5405,409.3783 1315.3945,409.4703 C1316.2485,409.5663 1317.5755,409.7563 1319.3775,410.0403 C1324.6875,411.1773 1329.3575,413.4543 1333.3895,416.8683 C1337.4185,420.2823 1340.2395,424.5033 1341.8525,429.5283 Z" id="Stroke-94" stroke="#000000" stroke-width="0.75" mask="url(#mask-2)"></path>
                <polygon id="Fill-95" fill="#000000" mask="url(#mask-2)" points="0 15 1350 15 1350 0 0 0"></polygon>
                <polygon id="Fill-96" fill="#000000" mask="url(#mask-2)" points="0 584 1350 584 1350 569 0 569"></polygon>
            </g>
        </g>
    </g>
</svg>