<?xml version="1.0" encoding="UTF-8"?>
<svg width="439px" height="419px" viewBox="0 0 439 419" version="1.1" xmlns="http://www.w3.org/2000/svg" xmlns:xlink="http://www.w3.org/1999/xlink">
    <!-- Generator: Sketch 53.2 (72643) - https://sketchapp.com -->
    <title>Icon 3</title>
    <desc>Created with Sketch.</desc>
    <g id="Page-1" stroke="none" stroke-width="1" fill="none" fill-rule="evenodd">
        <g id="Icon-3" transform="translate(7.000000, 7.000000)" stroke="#000000">
            <g id="noun_quality_1248038" fill-rule="nonzero" stroke-linecap="round" stroke-linejoin="round" stroke-width="13">
                <path d="M375.153832,255.340003 L425,202.368502 L375.084491,149.471434 L384.321683,77.2664396 L312.91051,63.8436845 L278.027107,0 L212.371224,31.1824742 L146.710388,0.0843574255 L111.906233,63.9627774 L40.4950587,77.4847765 L49.8313094,149.669922 L0,202.626536 L49.9056032,255.538491 L40.6485992,327.73356 L112.069679,341.161278 L146.953081,405 L212.589153,373.817526 L278.284659,404.930529 L313.088815,341.042185 L384.480177,327.520186 L383.578746,320.558217 L375.153832,255.340003 Z M213,339 C137.8736,339 77,277.882745 77,202.5 C77,127.117255 137.8736,66 213,66 C288.116509,66 349,127.117255 349,202.5 C349,277.882745 288.116509,339 213,339 Z" id="Shape"></path>
            </g>
            <path d="M270.778612,172.221429 L211.235551,245.420531 L166.466204,208.089102 C162.863551,205.07649 162.375633,199.709388 165.382571,196.101061 C168.395184,192.492735 173.762286,192.004816 177.370612,195.017429 L208.909429,221.319633 L257.565102,161.492898 C260.532327,157.844857 265.899429,157.294531 269.541796,160.256082 C273.189837,163.217633 273.73449,168.579061 270.778612,172.221429 Z" id="Path" stroke-width="5" fill="#000000"></path>
        </g>
    </g>
</svg>