<?xml version="1.0" encoding="UTF-8"?>
<svg width="207px" height="238px" viewBox="0 0 207 238" version="1.1" xmlns="http://www.w3.org/2000/svg" xmlns:xlink="http://www.w3.org/1999/xlink">
    <!-- Generator: Sketch 53.2 (72643) - https://sketchapp.com -->
    <title>Icon 5</title>
    <desc>Created with Sketch.</desc>
    <g id="Page-1" stroke="none" stroke-width="1" fill="none" fill-rule="evenodd">
        <g id="Icon-5" fill="#000000" fill-rule="nonzero">
            <path d="M103.5,238 L207,178.5 L207,59.4962408 L103.5,0 L0,59.4962408 L0,178.5 L103.5,238 Z M18.4379195,171.737269 L55.7592282,150.753633 L103.526426,178.210545 L151.19547,150.813779 L188.082634,172.019206 L103.5,220.636435 L18.4379195,171.737269 Z M103.526426,72.7999115 L140.379614,93.990302 L104.043624,114.816054 L67.2395134,93.6670142 L103.526426,72.7999115 Z M63.3473154,100.113975 L99.7248322,121.022429 L99.7248322,163.008498 L63.3473154,142.100044 L63.3473154,100.113975 Z M107.275168,121.635172 L143.701762,100.760551 L143.701762,142.092526 L107.275168,163.031053 L107.275168,121.635172 Z M191.899329,165.527135 L155.027265,144.329227 L155.027265,89.389089 L107.588507,62.1126169 L107.588507,19.7130402 L191.899329,68.1761435 L191.899329,165.527135 Z M100.041946,19.3521607 L100.041946,61.7780516 L52.0218121,89.389089 L52.0218121,144.216452 L15.1006711,164.974539 L15.1006711,68.1761435 L100.041946,19.3521607 Z" id="Shape"></path>
        </g>
    </g>
</svg>