<?xml version="1.0" encoding="UTF-8"?>
<svg width="460px" height="317px" viewBox="0 0 460 317" version="1.1" xmlns="http://www.w3.org/2000/svg" xmlns:xlink="http://www.w3.org/1999/xlink">
    <!-- Generator: Sketch 53.2 (72643) - https://sketchapp.com -->
    <title>Icon 1</title>
    <desc>Created with Sketch.</desc>
    <g id="Page-1" stroke="none" stroke-width="1" fill="none" fill-rule="evenodd">
        <g id="Icon-1" fill="#000000" fill-rule="nonzero">
            <path d="M425.248154,0 C406.086426,0 390.49631,15.6544546 390.49631,34.8952613 C390.49631,44.8537447 394.69282,53.8331485 401.383533,60.194461 L293.233165,248.404928 C290.39419,247.653038 287.431314,247.209477 284.360697,247.209477 C279.016746,247.209477 273.969082,248.46443 269.438575,250.63896 L178.338212,130.796376 C182.987234,124.862396 185.788499,117.397591 185.788499,109.272853 C185.788499,90.0320461 170.198383,74.3775916 151.036655,74.3775916 C131.874926,74.3775916 116.284811,90.0320461 116.284811,109.272853 C116.284811,116.396874 118.434243,123.02865 122.097435,128.556934 L53.8435412,205.141512 L11.4744115,162.256745 L0,173.686552 L54.4468906,228.79629 L133.932779,139.61891 C138.991216,142.507465 144.820002,144.173524 151.036655,144.173524 C156.267478,144.173524 161.218175,142.972664 165.673263,140.884682 L256.865206,260.846271 C252.334699,266.742385 249.608853,274.104414 249.608853,282.104739 C249.608853,301.345545 265.198969,317 284.360697,317 C303.522426,317 319.112541,301.345545 319.112541,282.104739 C319.112541,271.773015 314.592809,262.50151 307.460357,256.107742 L415.357535,68.3354265 C418.492796,69.2712318 421.811218,69.7959319 425.248154,69.7959319 C444.409883,69.7959319 459.999999,54.1414774 459.999999,34.9006706 C460.005386,15.6544546 444.41527,0 425.248154,0 Z M167.88734,117.056806 C167.327087,118.279303 166.626771,119.409842 165.829488,120.470061 C165.71636,120.616112 165.592458,120.751344 165.47933,120.897394 C164.757465,121.800744 163.960182,122.633773 163.082093,123.385663 C162.915095,123.531713 162.742709,123.672355 162.570324,123.812996 C161.6653,124.537839 160.690244,125.176134 159.655931,125.722472 C159.499707,125.803611 159.348869,125.895568 159.192645,125.976708 C157.991333,126.566319 156.730764,127.047745 155.400163,127.372302 C153.994144,127.713086 152.545028,127.945685 151.036655,127.945685 C149.000351,127.945685 147.071788,127.53458 145.240192,126.928741 C139.836983,125.138269 135.559667,120.978534 133.62033,115.628756 C132.898465,113.638141 132.440566,111.517704 132.440566,109.278262 C132.440566,98.9681757 140.763555,90.610839 151.031268,90.610839 C161.298981,90.610839 169.621969,98.9681757 169.621969,109.278262 C169.627356,112.064041 168.975524,114.682132 167.88734,117.056806 Z M284.366084,300.777571 C274.098371,300.777571 265.775383,292.420234 265.775383,282.110148 C265.775383,279.443373 266.351797,276.922649 267.353788,274.629115 C267.892492,273.401208 268.576648,272.254441 269.352382,271.188813 C269.492446,270.994079 269.659444,270.826391 269.804894,270.637066 C270.499824,269.755354 271.25401,268.933143 272.089003,268.192072 C272.256001,268.040612 272.433774,267.90538 272.606159,267.764739 C273.521957,267.018258 274.497013,266.342099 275.547487,265.774124 C275.666002,265.709213 275.784517,265.644301 275.903032,265.57939 C277.098957,264.968142 278.359526,264.459669 279.68474,264.113475 C281.187726,263.718598 282.739196,263.442725 284.366084,263.442725 C284.441503,263.442725 284.516921,263.464362 284.59234,263.464362 C285.99836,263.48059 287.361283,263.675324 288.675722,263.994471 C288.918139,264.053973 289.144395,264.145931 289.381426,264.216252 C290.469609,264.52999 291.530858,264.914049 292.527461,265.411702 C292.726782,265.50907 292.915329,265.622664 293.109262,265.725441 C294.148963,266.293415 295.134792,266.937119 296.045203,267.689009 C296.14217,267.764739 296.23375,267.840469 296.32533,267.921608 C297.321934,268.776274 298.248506,269.728307 299.051176,270.772298 C301.46996,273.925908 302.96756,277.825999 302.96756,282.110148 C302.956786,292.420234 294.633797,300.777571 284.366084,300.777571 Z M425.248154,53.5680938 C424.795642,53.5680938 424.370065,53.4653175 423.922941,53.4328618 C422.511534,53.3300855 421.143224,53.0650308 419.834171,52.6701534 C419.753366,52.643107 419.67256,52.6214699 419.586367,52.5944235 C418.401217,52.2211832 417.275324,51.712711 416.203301,51.1176902 C416.036303,51.0257325 415.863917,50.9445933 415.702306,50.8472263 C414.738024,50.2738426 413.854548,49.5976827 413.014169,48.8620207 C412.831009,48.6997423 412.626302,48.5645103 412.448529,48.3914134 C411.495022,47.4880638 410.627707,46.4981656 409.884294,45.4054912 L409.884294,45.4054912 C407.84799,42.4141597 406.657453,38.8007611 406.657453,34.9006706 C406.657453,24.5905841 414.980441,16.2332474 425.248154,16.2332474 C435.515867,16.2332474 443.838856,24.5905841 443.838856,34.9006706 C443.844243,45.2107571 435.515867,53.5680938 425.248154,53.5680938 Z" id="Shape"></path>
        </g>
    </g>
</svg>