<?xml version="1.0" encoding="UTF-8"?>
<svg width="367px" height="466px" viewBox="0 0 367 466" version="1.1" xmlns="http://www.w3.org/2000/svg" xmlns:xlink="http://www.w3.org/1999/xlink">
    <!-- Generator: Sketch 53.2 (72643) - https://sketchapp.com -->
    <title>Icon 4</title>
    <desc>Created with Sketch.</desc>
    <g id="Page-1" stroke="none" stroke-width="1" fill="none" fill-rule="evenodd">
        <g id="Icon-4" fill="#000000" fill-rule="nonzero">
            <g id="Group">
                <path d="M358.036675,41.6995006 L325.4842,41.6995006 L325.4842,9.0045061 C325.4842,4.13503885 321.328564,0.656847947 317.172929,0.656847947 L8.96332538,0.656847947 C4.11508442,0.656847947 0.652055158,4.83067703 0.652055158,9.0045061 L0.652055158,415.952841 C0.652055158,420.822309 4.80769027,424.300499 8.96332538,424.300499 L41.5158004,424.300499 L41.5158004,456.995494 C41.5158004,461.864961 45.6714355,465.343152 49.8270706,465.343152 L358.036675,465.343152 C362.884916,465.343152 366.347945,461.169323 366.347945,456.995494 L366.347945,50.0471587 C367.040551,45.1776915 362.884916,41.6995006 358.036675,41.6995006 Z M41.5158004,406.909545 L17.2745956,406.909545 L17.2745956,17.3521643 L308.169053,17.3521643 L308.169053,41.0038624 L308.169053,49.3515205 L308.169053,59.090455 L308.169053,406.909545 L58.8309467,406.909545 L50.5196765,406.909545 L41.5158004,406.909545 Z M349.725404,448.647836 L58.8309467,448.647836 L58.8309467,424.996138 L317.172929,424.996138 C322.02117,424.996138 325.4842,420.822309 325.4842,416.648479 L325.4842,59.090455 L349.725404,59.090455 L349.725404,448.647836 Z" id="Shape"></path>
                <path d="M69.2200345,113.350233 C70.6052462,115.437148 73.3756696,116.132786 76.146093,116.132786 C76.146093,116.132786 76.146093,116.132786 76.146093,116.132786 C78.9165164,116.132786 80.994334,114.741509 83.0721515,112.654595 L117.009838,67.4381132 C119.087656,64.6555605 119.087656,61.8730078 117.702444,59.090455 C117.009838,57.6991787 116.317232,56.3079023 114.932021,55.6122642 C110.776386,52.8297114 105.928145,53.5253496 102.465115,57.6991787 C100.387298,60.4817314 98.3094802,63.2642841 96.2316627,66.0468368 L75.4534871,93.872364 L60.2161584,75.0901332 L58.8309467,73.0032186 L57.445735,71.6119423 C55.3679174,69.5250277 52.597494,68.1337514 49.8270706,68.8293896 C48.4418589,68.8293896 46.3640414,69.5250277 44.9788297,70.9163041 C41.5158004,73.6988568 40.8231946,79.2639623 43.593618,83.4377913 L49.8270706,90.3941731 L58.1383408,100.828746 L69.2200345,113.350233 Z" id="Path"></path>
                <path d="M143.328861,74.394495 L263.842279,74.394495 C268.69052,74.394495 272.153549,70.2206659 272.153549,66.0468368 C272.153549,63.2642841 270.768337,60.4817314 267.997914,59.090455 C266.612702,58.3948169 265.22749,57.6991787 263.149673,57.6991787 L143.328861,57.6991787 C141.251043,57.6991787 139.865831,58.3948169 138.48062,59.090455 C136.402802,60.4817314 134.324985,63.2642841 134.324985,66.0468368 C134.324985,70.9163041 138.48062,74.394495 143.328861,74.394495 Z" id="Path"></path>
                <path d="M143.328861,114.045871 L244.449315,114.045871 C249.297556,114.045871 252.760585,109.872042 252.760585,105.698213 C252.760585,100.828746 248.60495,97.3505549 244.449315,97.3505549 L143.328861,97.3505549 C138.48062,97.3505549 135.01759,101.524384 135.01759,105.698213 C134.324985,110.56768 138.48062,114.045871 143.328861,114.045871 Z" id="Path"></path>
                <path d="M99.6946919,139.784484 C94.1538451,139.784484 87.9203925,139.784484 82.3795457,139.784484 C75.4534871,139.784484 67.8348228,139.784484 60.9087643,139.784484 C60.2161584,139.784484 58.8309467,139.784484 58.1383408,140.480122 C53.9827057,141.17576 51.2122823,144.653951 51.2122823,148.82778 L51.2122823,188.479156 C51.2122823,192.652986 53.9827057,196.131176 58.1383408,196.826815 C61.6013701,197.522453 65.7570052,197.522453 69.9126403,197.522453 C74.7608813,197.522453 79.6091222,197.522453 84.4573632,197.522453 C89.3056042,197.522453 94.846451,197.522453 99.6946919,197.522453 C104.542933,197.522453 108.005962,193.348624 108.005962,189.174795 L108.005962,149.523418 C108.698568,143.958313 104.542933,139.784484 99.6946919,139.784484 Z M91.3834217,179.43586 L69.2200345,179.43586 L69.2200345,157.175438 L91.3834217,157.175438 L91.3834217,179.43586 Z" id="Shape"></path>
                <path d="M143.328861,157.175438 L263.842279,157.175438 C268.69052,157.175438 272.153549,153.001609 272.153549,148.82778 C272.153549,143.958313 267.997914,140.480122 263.842279,140.480122 L143.328861,140.480122 C138.48062,140.480122 135.01759,144.653951 135.01759,148.82778 C134.324985,153.697248 138.48062,157.175438 143.328861,157.175438 Z" id="Path"></path>
                <path d="M143.328861,196.826815 L244.449315,196.826815 C249.297556,196.826815 252.760585,192.652986 252.760585,188.479156 C252.760585,183.609689 248.60495,180.131498 244.449315,180.131498 L143.328861,180.131498 C138.48062,180.131498 135.01759,184.305327 135.01759,188.479156 C134.324985,193.348624 138.48062,196.826815 143.328861,196.826815 Z" id="Path"></path>
                <path d="M99.6946919,222.565427 C94.1538451,222.565427 87.9203925,222.565427 82.3795457,222.565427 C75.4534871,222.565427 67.8348228,222.565427 60.9087643,222.565427 C60.2161584,222.565427 58.8309467,222.565427 58.1383408,223.261065 C53.9827057,223.956704 51.2122823,227.434895 51.2122823,231.608724 L51.2122823,271.2601 C51.2122823,275.433929 53.9827057,278.91212 58.1383408,279.607758 C60.2161584,280.303396 62.293976,280.303396 64.3717935,280.303396 C68.5274286,280.303396 71.9904579,280.303396 76.146093,280.303396 C83.7647574,280.303396 91.3834217,280.303396 98.3094802,280.303396 C99.0020861,280.303396 99.0020861,280.303396 99.6946919,280.303396 C104.542933,280.303396 108.005962,276.129567 108.005962,271.955738 L108.005962,232.304362 C108.698568,226.739256 104.542933,222.565427 99.6946919,222.565427 Z M91.3834217,262.216804 L69.2200345,262.216804 L69.2200345,239.956382 L91.3834217,239.956382 L91.3834217,262.216804 Z" id="Shape"></path>
                <path d="M143.328861,239.956382 L263.842279,239.956382 C268.69052,239.956382 272.153549,235.782553 272.153549,231.608724 C272.153549,226.739256 267.997914,223.261065 263.842279,223.261065 L143.328861,223.261065 C138.48062,223.261065 135.01759,227.434895 135.01759,231.608724 C134.324985,235.782553 138.48062,239.956382 143.328861,239.956382 Z" id="Path"></path>
                <path d="M143.328861,279.607758 L244.449315,279.607758 C249.297556,279.607758 252.760585,275.433929 252.760585,271.2601 C252.760585,266.390633 248.60495,262.912442 244.449315,262.912442 L143.328861,262.912442 C138.48062,262.912442 135.01759,267.086271 135.01759,271.2601 C134.324985,275.433929 138.48062,279.607758 143.328861,279.607758 Z" id="Path"></path>
                <path d="M60.2161584,361.693063 C63.6791877,362.388701 67.8348228,361.693063 70.6052462,361.693063 C74.0682754,361.693063 77.5313047,361.693063 81.6869398,361.693063 C87.9203925,361.693063 94.1538451,361.693063 100.387298,361.693063 C105.235539,361.693063 108.698568,357.519234 108.698568,353.345405 L108.698568,313.694029 C108.698568,308.824562 104.542933,305.346371 99.6946919,305.346371 C94.1538451,305.346371 87.9203925,305.346371 82.3795457,305.346371 C75.4534871,305.346371 67.8348228,305.346371 60.9087643,305.346371 C60.2161584,305.346371 58.8309467,305.346371 58.1383408,306.042009 C53.9827057,306.737647 51.2122823,310.215838 51.2122823,314.389667 C51.2122823,314.389667 51.2122823,354.041043 51.2122823,354.041043 C51.9048882,358.910511 56.0605233,360.997425 60.2161584,361.693063 Z M69.2200345,322.737325 L91.3834217,322.737325 L91.3834217,344.997747 L69.2200345,344.997747 L69.2200345,322.737325 Z" id="Shape"></path>
                <path d="M143.328861,322.737325 L263.842279,322.737325 C268.69052,322.737325 272.153549,318.563496 272.153549,314.389667 C272.153549,309.5202 267.997914,306.042009 263.842279,306.042009 L143.328861,306.042009 C138.48062,306.042009 135.01759,310.215838 135.01759,314.389667 C134.324985,318.563496 138.48062,322.737325 143.328861,322.737325 Z" id="Path"></path>
                <path d="M143.328861,362.388701 L244.449315,362.388701 C249.297556,362.388701 252.760585,358.214872 252.760585,354.041043 C252.760585,349.171576 248.60495,345.693385 244.449315,345.693385 L143.328861,345.693385 C138.48062,345.693385 135.01759,349.867214 135.01759,354.041043 C134.324985,358.214872 138.48062,362.388701 143.328861,362.388701 Z" id="Path"></path>
            </g>
        </g>
    </g>
</svg>