<?xml version="1.0" encoding="UTF-8"?>
<svg width="610px" height="465px" viewBox="0 0 610 465" version="1.1" xmlns="http://www.w3.org/2000/svg" xmlns:xlink="http://www.w3.org/1999/xlink">
    <!-- Generator: Sketch 53.2 (72643) - https://sketchapp.com -->
    <title>Icon 2</title>
    <desc>Created with Sketch.</desc>
    <g id="Page-1" stroke="none" stroke-width="1" fill="none" fill-rule="evenodd">
        <g id="Icon-2">
            <g id="Group-2-Copy" transform="translate(188.500000, 180.000000) scale(-1, 1) translate(-188.500000, -180.000000) " fill="#000000" fill-rule="nonzero">
                <path d="M362.68684,65.784524 C362.68684,98.3877144 362.68684,130.990905 362.68684,163.594773 C362.68684,179.482292 362.68684,195.369811 362.68684,211.256651 C362.68684,218.392605 362.081248,224.971709 359.779181,231.838394 C355.349044,245.048828 345.017949,255.583533 332.452755,261.58137 C319.559957,267.734528 304.26246,266.116204 290.124493,266.116204 C286.23402,266.116204 282.987881,269.355565 282.987881,273.237914 C282.987881,299.834451 282.987881,326.431665 282.987881,353.028202 C287.048953,351.349513 291.110025,349.670824 295.171096,347.992135 C269.934679,325.326783 244.698261,302.661431 219.461843,279.996079 C215.326006,276.281259 211.18949,272.566439 207.052974,268.851619 C203.798,265.927648 200.675562,266.116204 196.702848,266.116204 C179.398265,266.116204 162.093681,266.116204 144.789097,266.116204 C124.144579,266.116204 103.499381,266.116204 82.8541831,266.116204 C77.605715,266.116204 72.357247,266.116204 67.1087789,266.116204 C56.8225427,266.116204 47.2751158,263.595119 38.4780526,258.18194 C26.5068964,250.8147 18.4438847,238.520593 15.4716559,224.848944 C14.3712583,219.787104 14.4888425,214.527212 14.4888425,209.256468 C14.4888425,192.294588 14.4888425,175.332709 14.4888425,158.372186 C14.4888425,136.934481 14.4888425,115.496776 14.4888425,94.059071 C14.4888425,86.8424044 14.4888425,79.6257378 14.4888425,72.4090712 C14.4888425,68.0865321 14.2747442,63.3895945 14.8334389,59.2813849 C18.3276599,33.5808276 40.5184438,14.3949397 66.3427826,14.3949397 C75.2519926,14.3949397 84.1618822,14.3949397 93.0710922,14.3949397 C134.113406,14.3949397 175.155719,14.3949397 216.197353,14.3949397 C247.136943,14.3949397 278.077212,14.3949397 309.016803,14.3949397 C319.3846,14.3949397 328.96805,16.5280615 337.941829,21.8652748 C353.331082,31.0170118 362.545468,48.0433259 362.68684,65.784524 C362.759566,74.9654261 377.032789,74.9722087 376.960064,65.784524 C376.696349,32.6936659 351.633928,4.55680536 318.685212,0.62426468 C310.047193,-0.406687689 301.069336,0.150162242 292.392576,0.150162242 C253.050135,0.150162242 213.708374,0.150162242 174.366614,0.150162242 C140.198556,0.150162242 106.031179,0.150162242 71.8631216,0.150162242 C69.9042916,0.150162242 67.9461413,0.150162242 65.987991,0.150162242 C49.7049621,0.150162242 34.2545379,6.31959826 22.0509321,16.9587554 C10.024722,27.4432697 2.57409955,42.5901304 0.691393442,58.3033367 C0.128620643,62.9995961 0.216299014,67.6917859 0.216299014,72.4077147 C0.216299014,111.138289 0.216299014,149.869542 0.216299014,188.599438 C0.216299014,201.194692 -0.737967906,214.359004 1.36223493,226.834206 C6.53593849,257.569473 35.2251171,280.358268 66.0600368,280.358268 C100.369467,280.358268 134.678897,280.358268 168.988327,280.358268 C179.753736,280.358268 190.518465,280.358268 201.283873,280.358268 C199.601672,279.663054 197.919471,278.967839 196.23727,278.272625 C221.473687,300.937977 246.710105,323.603329 271.946523,346.268681 C276.323645,350.199865 280.700767,354.13105 285.077889,358.062912 C289.604539,362.128391 297.261104,359.483863 297.261104,353.026845 C297.261104,326.430309 297.261104,299.833094 297.261104,273.236558 C294.882234,275.610461 292.503363,277.984365 290.124493,280.358268 C298.081475,280.358268 306.078558,280.605833 314.030102,280.290443 C330.148649,279.651523 345.452943,272.833673 357.067269,261.752969 C368.735289,250.620719 375.377095,235.344311 376.773152,219.431018 C377.128624,215.379104 376.960064,211.234947 376.960064,207.171502 C376.960064,168.227277 376.960064,129.282373 376.960064,90.3381468 C376.960064,82.1536059 376.960064,73.9690649 376.960064,65.7838457 C376.960064,56.5995523 362.68684,56.5995523 362.68684,65.784524 Z" id="Path"></path>
                <path d="M53.5200234,83.6018957 L316.699734,83.6018957 C320.458222,83.6018957 323.142857,80.4028436 323.142857,77.2037915 C323.142857,73.471564 319.921295,70.8056872 316.699734,70.8056872 L53.5200234,70.8056872 C49.7615347,70.8056872 47.0769,74.0047393 47.0769,77.2037915 C46.539973,80.936019 49.7615347,83.6018957 53.5200234,83.6018957 Z" id="Path"></path>
                <path d="M53.5200234,123.696682 L316.699734,123.696682 C320.458222,123.696682 323.142857,120.49763 323.142857,117.298578 C323.142857,113.566351 319.921295,110.900474 316.699734,110.900474 L53.5200234,110.900474 C49.7615347,110.900474 47.0769,114.099526 47.0769,117.298578 C46.539973,121.030806 49.7615347,123.696682 53.5200234,123.696682 Z" id="Path-Copy"></path>
                <path d="M53.5200234,163.791469 L316.699734,163.791469 C320.458222,163.791469 323.142857,160.592417 323.142857,157.393365 C323.142857,153.661137 319.921295,150.995261 316.699734,150.995261 L53.5200234,150.995261 C49.7615347,150.995261 47.0769,154.194313 47.0769,157.393365 C46.539973,161.125592 49.7615347,163.791469 53.5200234,163.791469 Z" id="Path-Copy-2"></path>
                <path d="M53.5200234,203.886256 L316.699734,203.886256 C320.458222,203.886256 323.142857,200.687204 323.142857,197.488152 C323.142857,193.755924 319.921295,191.090047 316.699734,191.090047 L53.5200234,191.090047 C49.7615347,191.090047 47.0769,194.2891 47.0769,197.488152 C46.539973,201.220379 49.7615347,203.886256 53.5200234,203.886256 Z" id="Path-Copy-3"></path>
            </g>
            <rect id="Rectangle" fill="#FFFFFF" x="243" y="112" width="360" height="264" rx="73"></rect>
            <g id="Group-2" transform="translate(233.000000, 105.000000)" fill="#000000" fill-rule="nonzero">
                <path d="M362.68684,65.784524 C362.68684,98.3877144 362.68684,130.990905 362.68684,163.594773 C362.68684,179.482292 362.68684,195.369811 362.68684,211.256651 C362.68684,218.392605 362.081248,224.971709 359.779181,231.838394 C355.349044,245.048828 345.017949,255.583533 332.452755,261.58137 C319.559957,267.734528 304.26246,266.116204 290.124493,266.116204 C286.23402,266.116204 282.987881,269.355565 282.987881,273.237914 C282.987881,299.834451 282.987881,326.431665 282.987881,353.028202 C287.048953,351.349513 291.110025,349.670824 295.171096,347.992135 C269.934679,325.326783 244.698261,302.661431 219.461843,279.996079 C215.326006,276.281259 211.18949,272.566439 207.052974,268.851619 C203.798,265.927648 200.675562,266.116204 196.702848,266.116204 C179.398265,266.116204 162.093681,266.116204 144.789097,266.116204 C124.144579,266.116204 103.499381,266.116204 82.8541831,266.116204 C77.605715,266.116204 72.357247,266.116204 67.1087789,266.116204 C56.8225427,266.116204 47.2751158,263.595119 38.4780526,258.18194 C26.5068964,250.8147 18.4438847,238.520593 15.4716559,224.848944 C14.3712583,219.787104 14.4888425,214.527212 14.4888425,209.256468 C14.4888425,192.294588 14.4888425,175.332709 14.4888425,158.372186 C14.4888425,136.934481 14.4888425,115.496776 14.4888425,94.059071 C14.4888425,86.8424044 14.4888425,79.6257378 14.4888425,72.4090712 C14.4888425,68.0865321 14.2747442,63.3895945 14.8334389,59.2813849 C18.3276599,33.5808276 40.5184438,14.3949397 66.3427826,14.3949397 C75.2519926,14.3949397 84.1618822,14.3949397 93.0710922,14.3949397 C134.113406,14.3949397 175.155719,14.3949397 216.197353,14.3949397 C247.136943,14.3949397 278.077212,14.3949397 309.016803,14.3949397 C319.3846,14.3949397 328.96805,16.5280615 337.941829,21.8652748 C353.331082,31.0170118 362.545468,48.0433259 362.68684,65.784524 C362.759566,74.9654261 377.032789,74.9722087 376.960064,65.784524 C376.696349,32.6936659 351.633928,4.55680536 318.685212,0.62426468 C310.047193,-0.406687689 301.069336,0.150162242 292.392576,0.150162242 C253.050135,0.150162242 213.708374,0.150162242 174.366614,0.150162242 C140.198556,0.150162242 106.031179,0.150162242 71.8631216,0.150162242 C69.9042916,0.150162242 67.9461413,0.150162242 65.987991,0.150162242 C49.7049621,0.150162242 34.2545379,6.31959826 22.0509321,16.9587554 C10.024722,27.4432697 2.57409955,42.5901304 0.691393442,58.3033367 C0.128620643,62.9995961 0.216299014,67.6917859 0.216299014,72.4077147 C0.216299014,111.138289 0.216299014,149.869542 0.216299014,188.599438 C0.216299014,201.194692 -0.737967906,214.359004 1.36223493,226.834206 C6.53593849,257.569473 35.2251171,280.358268 66.0600368,280.358268 C100.369467,280.358268 134.678897,280.358268 168.988327,280.358268 C179.753736,280.358268 190.518465,280.358268 201.283873,280.358268 C199.601672,279.663054 197.919471,278.967839 196.23727,278.272625 C221.473687,300.937977 246.710105,323.603329 271.946523,346.268681 C276.323645,350.199865 280.700767,354.13105 285.077889,358.062912 C289.604539,362.128391 297.261104,359.483863 297.261104,353.026845 C297.261104,326.430309 297.261104,299.833094 297.261104,273.236558 C294.882234,275.610461 292.503363,277.984365 290.124493,280.358268 C298.081475,280.358268 306.078558,280.605833 314.030102,280.290443 C330.148649,279.651523 345.452943,272.833673 357.067269,261.752969 C368.735289,250.620719 375.377095,235.344311 376.773152,219.431018 C377.128624,215.379104 376.960064,211.234947 376.960064,207.171502 C376.960064,168.227277 376.960064,129.282373 376.960064,90.3381468 C376.960064,82.1536059 376.960064,73.9690649 376.960064,65.7838457 C376.960064,56.5995523 362.68684,56.5995523 362.68684,65.784524 Z" id="Path"></path>
                <path d="M53.5200234,83.6018957 L316.699734,83.6018957 C320.458222,83.6018957 323.142857,80.4028436 323.142857,77.2037915 C323.142857,73.471564 319.921295,70.8056872 316.699734,70.8056872 L53.5200234,70.8056872 C49.7615347,70.8056872 47.0769,74.0047393 47.0769,77.2037915 C46.539973,80.936019 49.7615347,83.6018957 53.5200234,83.6018957 Z" id="Path"></path>
                <path d="M53.5200234,123.696682 L316.699734,123.696682 C320.458222,123.696682 323.142857,120.49763 323.142857,117.298578 C323.142857,113.566351 319.921295,110.900474 316.699734,110.900474 L53.5200234,110.900474 C49.7615347,110.900474 47.0769,114.099526 47.0769,117.298578 C46.539973,121.030806 49.7615347,123.696682 53.5200234,123.696682 Z" id="Path-Copy"></path>
                <path d="M53.5200234,163.791469 L316.699734,163.791469 C320.458222,163.791469 323.142857,160.592417 323.142857,157.393365 C323.142857,153.661137 319.921295,150.995261 316.699734,150.995261 L53.5200234,150.995261 C49.7615347,150.995261 47.0769,154.194313 47.0769,157.393365 C46.539973,161.125592 49.7615347,163.791469 53.5200234,163.791469 Z" id="Path-Copy-2"></path>
                <path d="M53.5200234,203.886256 L316.699734,203.886256 C320.458222,203.886256 323.142857,200.687204 323.142857,197.488152 C323.142857,193.755924 319.921295,191.090047 316.699734,191.090047 L53.5200234,191.090047 C49.7615347,191.090047 47.0769,194.2891 47.0769,197.488152 C46.539973,201.220379 49.7615347,203.886256 53.5200234,203.886256 Z" id="Path-Copy-3"></path>
            </g>
        </g>
    </g>
</svg>